<svg width="24" height="23" viewBox="0 0 24 23" fill="none" xmlns="http://www.w3.org/2000/svg">
<path d="M8.17139 7.53734C9.11519 6.61561 10.399 6.09473 11.7412 6.09473C13.0834 6.09473 14.3671 6.61561 15.3109 7.53734C16.2541 8.45848 16.7807 9.70398 16.7807 10.9988C16.7807 12.2937 16.2541 13.5392 15.3109 14.4603C14.3671 15.382 13.0834 15.9029 11.7412 15.9029C10.399 15.9029 9.11519 15.382 8.17139 14.4603C7.22819 13.5392 6.70166 12.2937 6.70166 10.9988C6.70166 9.70398 7.22819 8.45848 8.17139 7.53734ZM8.5576 14.1315C9.40489 14.959 10.5504 15.4208 11.7412 15.4208C12.932 15.4208 14.0774 14.959 14.9247 14.1315C15.7726 13.3034 16.2523 12.1765 16.2523 10.9976C16.2523 9.81868 15.7726 8.69175 14.9247 7.86368C14.0774 7.0362 12.932 6.57439 11.7412 6.57439C10.5504 6.57439 9.40489 7.0362 8.5576 7.86368C7.70969 8.69175 7.22999 9.81868 7.22999 10.9976C7.22999 12.1765 7.70969 13.3034 8.5576 14.1315Z" stroke="#336699" stroke-width="1.5"/>
<path d="M18.3601 5.13795C18.3601 5.43506 18.1084 5.70607 17.7604 5.70607C17.4123 5.70607 17.1606 5.43506 17.1606 5.13795C17.1606 4.84083 17.4123 4.56982 17.7604 4.56982C18.1084 4.56982 18.3601 4.84083 18.3601 5.13795Z" stroke="#336699" stroke-width="1.5"/>
<path d="M16.3608 0.81535L16.3692 0.81571L16.3777 0.815879C17.2292 0.832953 18.0712 0.990807 18.868 1.28247C19.5194 1.52907 20.1098 1.9051 20.602 2.38558L21.1259 1.84891L20.602 2.38558C21.0941 2.86601 21.4772 3.44025 21.7279 4.07112C22.0296 4.85524 22.1904 5.68385 22.2036 6.52063L22.2038 6.53718L22.2048 6.55369C22.2734 7.69741 22.2736 8.05329 22.2736 11.0453C22.2736 14.027 22.2574 14.3873 22.2043 15.5475L22.2038 15.557L22.2037 15.5664C22.1867 16.3931 22.0274 17.2083 21.7303 17.9818C21.4792 18.6126 21.096 19.1868 20.6039 19.6673C20.1118 20.1479 19.5217 20.5243 18.8705 20.7715C18.0736 21.0625 17.2317 21.22 16.3803 21.2369L16.3667 21.2371L16.3531 21.2379C15.1823 21.3038 14.8122 21.304 11.7501 21.304C8.69982 21.304 8.32821 21.2882 7.13908 21.2375L7.13687 21.2374L7.13687 21.2374L7.12903 21.2371C6.27491 21.2097 5.43217 21.0401 4.63719 20.736L4.63439 20.7349C3.98151 20.4881 3.38979 20.1116 2.89654 19.6302C2.40434 19.1499 2.02101 18.5758 1.76987 17.9452C1.47271 17.1703 1.31349 16.3551 1.29652 15.5285L1.29622 15.5138L1.29533 15.4991C1.22681 14.3554 1.22656 13.9983 1.22656 11.0074C1.22656 8.02574 1.24279 7.66545 1.29589 6.50522L1.29633 6.49559L1.29653 6.48595C1.31305 5.66081 1.47305 4.84411 1.76998 4.07062C2.02033 3.43975 2.40322 2.86552 2.89526 2.38517C3.38754 1.90459 3.97818 1.52865 4.62989 1.28238C5.42524 0.989939 6.26629 0.832087 7.11673 0.815894L7.13027 0.815636L7.1438 0.814889C8.31508 0.750208 8.68557 0.75 11.7476 0.75C14.8003 0.75 15.1703 0.764642 16.3608 0.81535ZM21.6019 16.2047H21.6314L21.6644 15.4892C21.719 14.303 21.719 13.9638 21.719 11.0095V10.9866C21.719 8.01125 21.7053 7.66456 21.6511 6.49347C21.6367 5.71432 21.4889 4.9433 21.2139 4.21249L21.214 4.21245L21.2094 4.20067C20.9821 3.62609 20.6348 3.10559 20.1908 2.67203C19.7469 2.23852 19.2162 1.90147 18.6332 1.68148L18.6333 1.68143L18.6246 1.67829C17.8809 1.40805 17.0958 1.26437 16.3032 1.25318C15.0846 1.18565 14.7389 1.18565 11.7284 1.18565H11.7025C8.65565 1.18565 8.30176 1.20027 7.10426 1.25315C6.31136 1.26526 5.52601 1.40878 4.7816 1.67785L4.78159 1.67781L4.77394 1.68067C3.5921 2.12246 2.64871 3.03388 2.18691 4.20055L2.18682 4.20052L2.18265 4.21158C1.90421 4.94877 1.75617 5.7273 1.74515 6.51365C1.67852 7.70629 1.67852 8.04373 1.67852 10.9827V11.0087C1.67852 13.9821 1.69097 14.3304 1.74518 15.5006C1.75953 16.2798 1.90736 17.0508 2.1823 17.7816L2.1822 17.7816L2.18705 17.7939C2.4153 18.3697 2.76425 18.8909 3.21026 19.3245C3.65622 19.758 4.18931 20.0942 4.77453 20.3124L4.77452 20.3124L4.7804 20.3146C5.52368 20.5847 6.30836 20.7283 7.10054 20.7397C8.32038 20.8072 8.66474 20.8072 11.6767 20.8072H11.7025C14.7467 20.8072 15.103 20.7938 16.2995 20.7397C17.0931 20.7283 17.8792 20.5847 18.624 20.3148L18.624 20.3148L18.6327 20.3116C19.2159 20.092 19.7468 19.7552 20.1908 19.3218C20.6349 18.8884 20.9822 18.3679 21.2094 17.7933L21.2095 17.7933L21.2136 17.7824C21.4061 17.2725 21.5363 16.7429 21.6019 16.2047Z" stroke="#336699" stroke-width="1.5"/>
</svg>
