<svg width="364" height="396" viewBox="0 0 364 396" fill="none" xmlns="http://www.w3.org/2000/svg">
<g filter="url(#filter0_d)">
<path d="M336.673 108.839C332.907 105.863 328.485 104.218 323.826 103.334C305.825 99.9076 288.033 101.955 270.415 105.928C266.084 106.906 262.841 106.092 260.016 103.02C253.077 95.4771 244.512 90.092 235.843 84.8688C223.984 77.7247 224.422 77.8865 227.21 64.0931C232.573 37.5759 227.116 23.8857 208.998 10.2167C199.924 3.37041 194.609 3.49472 185.581 10.5755C177.672 16.7791 171.379 24.5002 165.231 32.3597C157.925 41.7015 154.541 52.4552 154.579 64.0908C154.595 68.9247 153.156 72.363 149.521 75.0579C146.722 77.136 146.016 79.8191 146.75 82.9573C147.46 85.9946 148.391 88.985 149.308 91.9707C150.068 94.4521 150.637 96.9899 150.079 99.53C149.699 101.261 149.151 102.86 148.478 104.383C145.191 105.492 142.29 106.89 139.767 108.522C139.582 108.494 139.139 108.94 139.139 108.94C126.564 117.486 123.72 131.944 128.36 144.072C128.254 144.796 128.182 145.538 128.161 146.295C127.83 157.368 123.612 166.965 117.225 175.817C115.063 178.812 113.25 182.053 111.227 185.149C106.303 192.692 103.212 200.763 103.264 209.94C103.304 217.026 101.283 223.698 98.0844 229.989C91.6316 242.682 84.799 255.167 75.5208 266.089C65.6822 277.669 57.6537 290.313 51.5832 304.247C49.4916 309.053 46.7764 313.6 44.1643 318.165C40.0329 325.384 34.3891 330.64 25.7346 332.017C22.0345 332.605 18.8035 334.564 15.6076 336.449C11.0306 339.149 9.94733 341.705 11.8161 346.779C15.0659 355.604 21.3405 361.449 30.2928 364.381C37.5076 366.743 44.9334 366.534 52.3194 365.669C59.6304 364.81 60.6034 363.933 62.1486 356.686C63.5883 349.938 67.1336 344.527 73.3425 341.999C79.0989 339.653 81.392 335.471 83.3382 330.255C86.6935 321.265 91.8496 318.324 101.517 319.154C104.443 319.405 105.74 320.693 104.856 323.62C104.366 325.245 103.791 326.857 103.13 328.421C101.247 332.873 99.0832 337.214 97.4231 341.745C93.3714 352.806 98.5838 361.362 110.113 363.018C111.789 363.26 113.44 363.771 115.063 364.285C125.785 367.674 135.837 365.936 145.5 360.563C149.284 358.459 150.851 355.438 150.771 351.146C150.612 342.587 149.402 334.165 148.025 325.747C147.153 320.416 148.935 318.324 154.366 318.371C155.918 318.385 157.491 318.605 159.01 318.936C163.154 319.834 163.705 321.185 161.54 324.816C157.948 330.849 157.784 332.167 163.299 336.529C169.642 341.548 173.517 347.811 175.752 355.391C176.554 358.109 177.778 360.811 180.531 362.207C185.612 364.777 190.604 367.636 195.917 369.611C201.502 371.687 207.113 371.309 211.927 366.996C216.633 362.779 217.357 357.654 215.934 351.838C215.181 348.756 213.885 345.941 212.33 343.223C209.467 338.215 210.255 335.997 215.782 334.132C217.522 333.546 219.369 333.081 221.193 332.976C225.128 332.748 226.582 334.725 225.576 338.52C224.628 342.09 223.555 345.639 222.835 349.255C221.062 358.161 223.39 362.322 232.038 365.117C240.789 367.948 249.849 369.093 259.038 368.506C263.798 368.204 268.365 366.757 271.988 363.52C278.907 357.338 281.06 351.218 276.283 343.216C274.534 340.286 272.914 337.275 271.057 334.416C267.957 329.645 266.926 324.5 267.863 318.943C269.191 311.091 271.087 303.365 273.444 295.761C277.66 282.151 281.479 268.477 281.062 254.039C281.062 253.187 281.093 252.334 281.057 251.482C280.471 237.41 277.573 223.562 276.87 209.513C276.757 207.252 276.623 205.003 276.415 202.775C281.032 196.156 282.905 187.129 280.096 176.607C283.944 176.014 288.064 175.381 290.014 171.682C292.279 167.387 295.874 165.502 300.057 163.71C314.883 157.358 328.6 149.283 338.352 136.008C345.566 126.2 344.729 115.204 336.673 108.839ZM90.3865 303.752C89.5752 304.54 88.6655 305.274 87.6877 305.832C78.59 311.032 75.3355 318.657 77.7037 328.848C78.5783 332.605 77.0261 335.453 73.5066 337.261C70.7304 338.687 68.1535 339.916 67.143 334.932C64.4277 337.833 63.5883 340.974 62.573 344.018C61.2271 348.054 60.0899 352.171 58.0336 355.935C56.6596 358.449 54.6618 359.96 51.7356 358.764C46.2441 356.517 40.4268 356.057 34.6493 355.321C31.6668 354.941 28.7851 354.155 26.0558 352.905C23.7556 351.852 21.9572 350.372 21.8212 347.546C21.7438 345.934 21.2162 344.82 19.3873 344.067C16.5783 342.909 17.3521 341.014 19.3709 339.625C22.119 337.735 25.3688 336.979 28.567 336.358C40.5464 334.027 48.2161 326.767 52.8493 315.821C59.6421 299.772 68.0011 284.686 80.1024 271.892C84.1213 267.644 87.0757 262.574 90.5225 257.885C91.2306 256.921 91.8168 255.366 93.4042 255.835C94.7314 256.227 94.3867 257.768 94.6563 258.781C96.5181 265.77 98.293 272.783 100.038 279.801C102.596 290.081 97.1394 297.192 90.3865 303.752ZM141.197 119.973C141.549 119.604 141.92 119.245 142.304 118.898C158.38 121.945 176.195 128.85 194.323 139.071C193.424 139.995 192.501 140.943 191.535 141.893C173.288 131.662 155.951 124.846 139.835 121.57C140.248 121.03 140.698 120.496 141.197 119.973ZM224.952 171.112C237.37 178.929 249.577 188.369 264.152 201.408C263.615 201.79 263.059 202.144 262.478 202.468C262.266 202.585 262.051 202.698 261.835 202.808C260.489 201.731 258.921 200.469 257.221 199.1C247.933 191.625 234.036 180.442 224.893 174.116C224.964 173.115 224.983 172.109 224.952 171.112ZM229.431 142.111C237.316 146.975 244.812 151.929 251.173 156.491C261.324 163.773 265.526 167.901 266.363 169.104C267.509 171.11 268.466 173.082 269.24 175.019C261.814 168.71 254.655 163.295 245.588 157.126C245.161 156.713 244.608 156.219 243.853 155.717L243.703 155.62C241 153.962 238.413 152.267 235.911 150.625C233.942 149.332 231.904 147.996 229.829 146.691L229.492 147.224C229.663 145.533 229.674 143.811 229.431 142.111ZM230.507 158.813C233.039 160.473 235.656 162.19 238.448 163.907C238.577 163.998 238.697 164.116 238.974 164.392L239.302 164.718L239.684 164.979C249.012 171.309 256.231 176.79 263.823 183.301L263.854 183.327C264.703 184.042 265.549 184.734 266.37 185.405C267.908 186.662 269.364 187.853 270.813 189.172C270.991 189.38 271.165 189.561 271.329 189.725C271.104 191.111 270.74 192.432 270.239 193.687C253.882 179.091 240.348 168.858 226.148 160.332C226.46 159.296 226.786 158.268 227.112 157.246C227.168 157.07 227.224 156.889 227.283 156.709C228.343 157.394 229.407 158.093 230.507 158.813ZM247.938 204.227C244.66 203.399 241.487 201.788 238.573 199.444C235.982 197.362 233.602 194.709 231.503 191.564C231.351 191.334 231.198 191.104 231.048 190.87C236.765 195.272 242.812 200.106 247.938 204.227ZM238.683 211.15C236.301 217.474 231.515 220.546 224.882 221.215C219.901 221.717 215.078 222.678 210.342 224.423C198.939 228.626 196.477 226.766 197.314 214.699C197.572 210.979 196.55 208.001 193.832 205.538C191.591 203.507 189.814 201.114 188.388 198.473C185.975 193.998 186.594 192.042 191.045 189.486C195.373 186.997 200.152 186.47 205.005 185.965C210.579 185.386 214.169 182.201 214.975 177.724C215.259 179.185 215.648 180.676 216.169 182.201C221.332 197.308 229.67 206.568 238.683 211.15ZM191.08 165.291C191.145 163.963 192.585 163.684 193.614 163.358C194.956 162.931 196.384 162.776 197.218 162.612C202.947 162.725 207.892 166.309 209.085 170.854C209.254 171.494 209.481 172.381 209.186 172.824C208.581 173.734 207.695 173.113 206.919 172.787C202.466 170.92 197.992 169.1 193.563 167.176C192.608 166.764 191.005 166.768 191.08 165.291ZM214.373 171.213C211.268 161.833 199.994 154.739 190.132 155.895C193.509 153.547 196.327 150.97 198.794 148.521C199.279 148.753 199.755 148.969 200.224 149.164C206.464 151.751 215.219 145.624 215.421 138.644C215.822 138.82 216.23 139.029 216.647 139.287C224.976 144.419 214.448 155.597 214.373 171.213ZM213.423 139.676C211.057 144.217 207.052 145.277 202.316 145.265C202.208 145.265 202.102 145.261 201.995 145.261C205.978 141.159 209.123 138.03 212.682 138.032C213.371 138.032 214.079 138.154 214.809 138.405C214.145 138.548 213.725 139.095 213.423 139.676ZM201.863 132.084C190.196 125.315 174.249 117.348 156.818 112.312C158.467 111.993 160.197 111.752 162.002 111.592C162.178 111.576 162.38 111.569 162.605 111.569C164.657 111.569 171.002 112.254 185.56 118.598C192.067 121.434 199.371 125.029 207.113 129.202C205.221 129.889 203.491 130.89 201.863 132.084ZM136.203 130.846C150.809 133.588 166.629 139.543 183.394 148.603C181.877 149.583 180.242 150.489 178.467 151.277C168.758 145.767 149.73 138.096 136.299 135.722C136.21 135.077 136.149 134.427 136.121 133.775C136.081 132.884 136.098 131.897 136.203 130.846ZM164.455 155.255C163.144 155.402 161.857 155.477 160.598 155.477C151.627 155.477 145.983 151.765 142.825 148.65C142.253 148.085 141.711 147.489 141.204 146.867C148.738 148.891 157.372 152.105 164.455 155.255ZM208.78 358.407C206.776 361.039 204.609 363.445 201.549 364.862C196.377 367.254 193.333 366.109 191.828 360.642C190.742 356.7 189.635 355.091 185.234 357.373C180.533 359.812 177.961 356.876 178.019 349.035C179.023 343.704 175.384 339.77 171.553 336.1C168.65 333.318 168.99 331.498 172.108 329.101C176.828 325.478 181.769 323.374 187.865 323.96C192.433 324.399 196.053 326.162 198.688 329.875C202.138 334.737 205.394 339.745 209.005 344.485C212.684 349.307 212.304 353.782 208.78 358.407ZM274.898 238.878C275.58 262.128 271.617 284.695 264.881 306.869C263.894 310.122 263.371 313.514 262.614 316.837C260.817 324.718 261.814 331.934 266.834 338.626C269.981 342.822 272.748 347.501 272.234 353.095C271.988 355.764 272.447 359.711 267.298 357.842C265.68 357.256 265.537 359.352 264.82 360.274C261.999 363.905 260.782 363.949 258.076 360.368C254.805 356.038 254.805 356.038 250.458 359.835C247.387 362.519 245.752 362.162 244.001 358.416C243.82 358.032 243.691 357.621 243.525 357.23C240.524 350.125 240.524 350.125 234.99 355.124C231.81 357.994 229.06 357.225 228.305 352.973C227.419 347.993 227.562 342.932 228.812 338.143C232.884 329.186 246.948 334.334 248.704 332.636C249.11 332.244 249.04 331.578 248.465 331.304C246.707 330.459 236.46 329.474 231.632 329.413C233.771 321.53 234.092 313.596 232.95 305.246C231.466 294.389 233.201 283.703 238.287 273.768C238.718 272.926 239.665 272 238.554 271.153C237.797 270.576 236.915 271.289 236.207 271.681C233.825 273.001 232.434 275 232.003 277.739C231.428 281.393 230.551 284.986 229.147 288.422C225.686 296.885 219.798 302.53 210.574 304.371C204.428 305.598 198.339 307.111 192.177 308.239C171.585 312.013 153.088 301.564 145.533 282.019C144.663 279.768 143.805 277.509 142.857 275.29C142.027 273.348 140.583 271.868 138.452 271.657C136.398 271.453 133.83 270.703 132.466 272.748C131.033 274.892 133.192 276.522 134.484 277.793C143.784 286.945 144.438 297.985 141.938 309.845C140.412 317.088 140.419 324.211 142.381 331.205C136.78 329.54 128.043 327.253 126.289 327.727C125.638 327.903 125.434 328.585 125.781 329.073C127.23 331.109 141.005 332.715 144.968 338.586C146.119 342.676 145.793 346.762 143.598 350.916C140.538 356.711 140.773 356.833 135.558 353.594C132.967 359.57 131.084 360.795 126.029 360.666C119.33 360.495 118.653 355.813 118.772 350.079C116.369 351.945 116.28 354.113 115.21 355.684C113.761 357.814 112.176 359.847 109.349 358.264C106.608 356.728 104.42 354.457 105.958 350.967C107.159 348.242 109.468 345.768 104.544 344.227C103.013 343.748 103.433 341.715 104.099 340.422C112.692 323.695 111.243 306.428 107.309 288.875C103.426 271.554 102.521 253.98 104.446 236.328C104.964 231.581 104.453 226.182 110.059 223.426C111.388 222.772 110.805 221.142 110.535 219.896C108.603 210.895 110.12 202.411 114.409 194.348C121.143 181.687 126.934 168.476 136.292 157.351C136.503 157.1 136.717 156.835 136.916 156.563C142.74 161.84 150.778 165.279 160.6 165.279C167.058 165.279 174.294 163.79 182.167 160.363C182.432 160.248 182.693 160.131 182.953 160.011C182.228 161.489 182.123 163.288 182.786 165.286C184.273 169.763 184.085 174.229 183.9 178.758C183.9 180.604 183.94 182.452 183.893 184.295C183.748 190.11 183.122 190.804 177.325 191.198C171.632 191.583 166 192.385 160.368 193.274C145.071 195.689 139.737 191.66 137.807 178.204C137.669 177.248 137.624 175.939 136.414 175.871C134.899 175.786 134.665 177.238 134.656 178.319C134.571 187.645 136.248 194.812 147.05 197.362C151.742 198.469 154.316 200.866 155.55 205.13C158.448 215.142 165.911 219.634 175.473 221.451C177.663 221.867 181.063 223.161 181.773 220.11C182.524 216.897 178.866 216.58 176.589 215.647C176.458 215.593 176.319 215.525 176.181 215.52C167.869 215.358 165.105 209.22 162.453 202.92C161.271 200.115 162.345 198.3 164.797 196.944C169.623 194.275 181.143 195.53 184.941 199.569C189.884 204.827 193.659 210.66 193.619 218.412C193.572 227.181 197.174 230.338 205.814 229.562C215.364 228.706 224.56 226.086 233.771 223.598C235.339 223.173 236.673 222.293 237.569 220.978C239.393 218.292 241.204 215.602 243.154 213.027C246.46 214.138 249.804 214.669 253.063 214.669C260.069 214.669 266.693 212.225 271.777 207.888C272.206 215.719 269.892 223.534 265.158 231.323C263.995 233.237 261.211 235.432 263.535 237.607C265.554 239.497 267.603 236.793 269.535 235.801C270.886 235.106 272.175 233.697 273.798 234.593C275.477 235.517 274.853 237.384 274.898 238.878ZM315.448 109.944C315.249 111.189 314.484 112.076 313.204 112.162C311.649 112.268 310.076 112.198 308.514 112.127C300.5 111.766 292.615 111.937 284.959 115.003C273.995 119.393 271.289 123.266 271.936 135.011C272.178 139.407 272.529 143.797 272.862 148.186C273.198 152.604 273.048 156.913 272.382 161.102C270.691 159.357 268.332 157.279 265.437 154.957C264.227 151.507 261.155 149.175 257.319 148.823C230.601 129.579 181.595 101.767 162.605 101.767C162.094 101.767 161.606 101.789 161.14 101.828C158.476 102.063 155.981 102.445 153.643 102.957C153.566 100.33 154.068 97.8975 155.292 95.6882C155.461 95.3833 155.643 95.0854 155.838 94.7899C156.337 93.8939 157.006 93.2067 157.763 92.6274C158.016 92.4351 158.279 92.2521 158.549 92.0786C158.792 91.9519 159.046 91.8253 159.301 91.6939C159.559 91.5649 159.822 91.4312 160.091 91.2952C160.685 90.9387 161.308 90.6127 161.934 90.2843C162.249 90.1202 162.563 89.956 162.875 89.7895C164.274 89.2993 167.191 88.1735 169.635 86.5762C171.827 85.4481 173.689 83.8298 176.237 83.5483C176.638 83.4217 177.007 83.3161 177.346 83.234C177.658 83.0652 178.005 83.0745 178.343 83.0886C178.681 83.1027 179.014 83.1215 179.297 82.969C179.602 82.9197 179.909 82.8681 180.221 82.8095C180.533 82.7509 180.85 82.6876 181.18 82.6172C181.546 82.5187 181.907 82.4038 182.263 82.2724C183.684 81.7423 185.023 80.9426 186.282 79.9223C190.404 76.5778 193.53 72.3208 196.888 68.2867C197.706 67.304 199.284 66.1735 197.88 64.6607C196.581 63.2628 194.869 63.23 193.164 64.0837C190.505 65.4159 188.667 67.6417 187.302 70.1232C186.207 72.1168 184.939 73.7023 183.34 74.7178C183.021 74.9219 182.688 75.1025 182.341 75.2573C180.627 76.0406 178.709 75.9187 176.899 76.2048C176.596 76.2517 176.298 76.3127 176.005 76.3878C175.761 76.4652 175.52 76.5496 175.278 76.6411C175.037 76.7326 174.795 76.8334 174.554 76.9389C173.011 78.0319 170.957 78.8106 169.255 79.9082C167.616 80.5368 166 81.3741 165.569 81.7048C165.311 81.8479 161.62 83.6843 161.36 83.8251C161.1 83.9658 160.839 84.0971 160.579 84.2144C159.822 84.402 159.067 84.592 158.309 84.592C157.932 84.592 157.552 84.5451 157.186 84.4935C156.82 84.4419 156.464 84.388 156.131 84.3739C155.843 84.2965 155.55 84.1886 155.247 83.9752C154.884 83.6961 154.591 83.4287 154.368 83.166C153.024 81.5969 154.082 80.2812 157.583 78.3368C161.531 76.1439 162.95 73.3505 162.544 68.6456C160.673 46.9458 170.615 30.6499 187.047 17.5813C189.544 15.5947 196.899 14.0444 197.354 15.3273C197.79 16.554 193.657 21.4582 191.631 22.4738C183.752 26.4282 178.556 32.8499 174.76 40.5499C174.214 41.6593 172.744 43.1556 174.781 44.1548C176.266 44.8842 177.921 44.0774 178.362 42.6889C181.989 31.2597 195.206 28.4546 200.266 18.3271C201.293 16.2702 203.05 17.5132 204.356 18.1934C209.791 21.0314 213.336 25.6729 215.634 31.1401C222.204 46.7605 223.247 62.4959 215.805 78.1937C214.75 80.4195 214.3 81.9886 217.341 83.091C231.229 88.1172 243.086 96.3707 253.828 106.341C255.6 107.988 257.474 109.528 259.195 111.222C262.951 114.918 266.937 116.473 271.664 112.906C271.997 112.655 272.424 112.427 272.827 112.387C285.557 111.1 297.393 103.731 310.765 106.829C311.729 107.052 312.705 107.23 313.664 107.476C314.925 107.807 315.666 108.586 315.448 109.944Z" fill="url(#paint0_linear)"/>
</g>
<defs>
<filter id="filter0_d" x="0.945312" y="0.171875" width="362.332" height="395.661" filterUnits="userSpaceOnUse" color-interpolation-filters="sRGB">
<feFlood flood-opacity="0" result="BackgroundImageFix"/>
<feColorMatrix in="SourceAlpha" type="matrix" values="0 0 0 0 0 0 0 0 0 0 0 0 0 0 0 0 0 0 127 0"/>
<feOffset dx="5" dy="10"/>
<feGaussianBlur stdDeviation="7.5"/>
<feColorMatrix type="matrix" values="0 0 0 0 0.415686 0 0 0 0 0.415686 0 0 0 0 0.352941 0 0 0 0.5 0"/>
<feBlend mode="normal" in2="BackgroundImageFix" result="effect1_dropShadow"/>
<feBlend mode="normal" in="SourceGraphic" in2="effect1_dropShadow" result="shape"/>
</filter>
<linearGradient id="paint0_linear" x1="106.523" y1="50.5366" x2="264.114" y2="393.442" gradientUnits="userSpaceOnUse">
<stop stop-color="#252632"/>
<stop offset="1" stop-color="#785131"/>
</linearGradient>
</defs>
</svg>
